<?xml version="1.0" encoding="utf-8"?>
<!-- Generator: Adobe Illustrator 18.0.0, SVG Export Plug-In . SVG Version: 6.00 Build 0)  -->
<!DOCTYPE svg PUBLIC "-//W3C//DTD SVG 1.1//EN" "http://www.w3.org/Graphics/SVG/1.1/DTD/svg11.dtd">
<svg version="1.1" id="Capa_1" xmlns="http://www.w3.org/2000/svg" xmlns:xlink="http://www.w3.org/1999/xlink" x="0px" y="0px"
	 viewBox="0 0 116.7 60" enable-background="new 0 0 116.7 60" xml:space="preserve">
<g>
	<g>
		<path fill="#821E6E" d="M59.5,24.8C56.7,8.5,41.1-2.4,24.8,0.5C8.5,3.3-2.4,18.9,0.5,35.2c2.9,16.3,18.4,27.2,34.7,24.3
			C51.5,56.7,62.4,41.1,59.5,24.8z M52.2,45.6c-4.2,5.9-10.4,9.9-17.5,11.2c-7.1,1.3-14.3-0.3-20.3-4.5C8.5,48.1,4.5,41.9,3.3,34.7
			C2,27.6,3.6,20.4,7.8,14.4c4.2-5.9,10.4-9.9,17.5-11.2s14.3,0.3,20.3,4.5c5.9,4.2,9.9,10.4,11.2,17.5C58,32.4,56.4,39.6,52.2,45.6
			z"/>
		<path fill="#821E6E" d="M35,22l-3.9,0.7c-0.1,0-0.2,0.1-0.1,0.2l0.9,5.3l-9.2-4.4c-0.1,0-0.1,0-0.2,0c0,0-0.1,0.1-0.1,0.2
			l2.4,13.7c0,0.1,0.1,0.2,0.2,0.1l3.9-0.7c0.1,0,0.2-0.1,0.1-0.2l-1-5.7l9.3,4.8c0,0,0.1,0,0.1,0c0,0,0.1,0,0.1,0
			c0,0,0.1-0.1,0.1-0.2l-2.4-13.8C35.1,22.1,35,22,35,22z"/>
		<path fill="#821E6E" d="M20.4,24.8c0-0.1-0.1-0.2-0.2-0.1l-3.9,0.7c-0.1,0-0.2,0.1-0.1,0.2l1.3,7.4c0.2,1.4-0.4,2.4-1.7,2.7
			c-1.3,0.2-2.3-0.5-2.5-1.9l-1.3-7.4c0-0.1-0.1-0.2-0.2-0.1l-3.9,0.7c-0.1,0-0.2,0.1-0.1,0.2l1.4,8c0.6,3.6,3.5,5.5,7.4,4.8
			c3.8-0.7,5.9-3.4,5.3-7L20.4,24.8z"/>
		<path fill="#821E6E" d="M43.5,20.2c-3.8,0.7-5.9,3.4-5.2,7.1l1.4,8c0,0.1,0.1,0.2,0.2,0.1l3.9-0.7c0.1,0,0.2-0.1,0.1-0.2l-0.5-2.6
			l4.2-0.7l0.5,2.6c0,0.1,0.1,0.2,0.2,0.1l3.9-0.7c0.1,0,0.2-0.1,0.1-0.2l-1.4-8C50.2,21.4,47.3,19.5,43.5,20.2z M42.7,28.3
			l-0.3-1.7c-0.2-1.4,0.4-2.4,1.7-2.7c1.3-0.2,2.3,0.5,2.5,1.9l0.3,1.7L42.7,28.3z"/>
	</g>
	<g>
		<g>
			<path fill="#821E6E" d="M72.7,25.4c0,0.6-0.2,1.1-0.5,1.5c-0.3,0.4-0.7,0.8-1.2,1c-0.5,0.2-1.1,0.4-1.7,0.4
				c-1.1,0-1.9-0.4-2.5-1.1c-0.6-0.7-0.9-1.7-0.9-3v-0.4c0-0.8,0.1-1.5,0.4-2.1c0.3-0.6,0.7-1.1,1.2-1.4c0.5-0.3,1.1-0.5,1.8-0.5
				c1,0,1.8,0.3,2.4,0.8c0.6,0.5,0.9,1.2,1,2.2h-2c0-0.5-0.1-0.9-0.4-1.1c-0.2-0.2-0.6-0.3-1.1-0.3c-0.5,0-0.9,0.2-1.1,0.6
				c-0.2,0.4-0.3,1-0.4,1.8v0.6c0,0.9,0.1,1.5,0.3,1.9c0.2,0.4,0.6,0.6,1.1,0.6c0.5,0,0.8-0.1,1-0.3c0.2-0.2,0.4-0.6,0.4-1H72.7z"/>
			<path fill="#821E6E" d="M76.5,25.3h-1.1v2.9h-2V20h3.2c1,0,1.7,0.2,2.3,0.6c0.5,0.4,0.8,1,0.8,1.8c0,0.6-0.1,1-0.3,1.4
				c-0.2,0.4-0.6,0.7-1.1,0.9l1.7,3.3v0.1H78L76.5,25.3z M75.5,23.8h1.2c0.4,0,0.7-0.1,0.8-0.3c0.2-0.2,0.3-0.5,0.3-0.8
				c0-0.4-0.1-0.6-0.3-0.8c-0.2-0.2-0.5-0.3-0.8-0.3h-1.2V23.8z"/>
			<path fill="#821E6E" d="M82.8,28.2h-2V20h2V28.2z M82.1,17.8h2l-1.6,1.8l-1.5,0L82.1,17.8z"/>
			<path fill="#821E6E" d="M90.4,21.5h-2.5v6.7h-2v-6.7h-2.4V20h6.8V21.5z"/>
			<path fill="#821E6E" d="M93,28.2h-2V20h2V28.2z"/>
			<path fill="#821E6E" d="M100.8,25.4c0,0.6-0.2,1.1-0.5,1.5c-0.3,0.4-0.7,0.8-1.2,1c-0.5,0.2-1.1,0.4-1.7,0.4
				c-1.1,0-1.9-0.4-2.5-1.1c-0.6-0.7-0.9-1.7-0.9-3v-0.4c0-0.8,0.1-1.5,0.4-2.1c0.3-0.6,0.7-1.1,1.2-1.4c0.5-0.3,1.1-0.5,1.8-0.5
				c1,0,1.8,0.3,2.4,0.8c0.6,0.5,0.9,1.2,1,2.2h-2c0-0.5-0.1-0.9-0.4-1.1c-0.2-0.2-0.6-0.3-1.1-0.3c-0.5,0-0.9,0.2-1.1,0.6
				c-0.2,0.4-0.3,1-0.4,1.8v0.6c0,0.9,0.1,1.5,0.3,1.9c0.2,0.4,0.6,0.6,1.1,0.6c0.5,0,0.8-0.1,1-0.3c0.2-0.2,0.4-0.6,0.4-1H100.8z"
				/>
			<path fill="#821E6E" d="M106.1,26.7h-2.7l-0.5,1.5h-2.1l3-8.2h1.9l3,8.2h-2.1L106.1,26.7z M103.8,25.1h1.8l-0.9-2.8L103.8,25.1z"
				/>
			<path fill="#821E6E" d="M66,39.9v-8.2h2.6c0.7,0,1.4,0.2,2,0.5c0.6,0.3,1,0.8,1.4,1.4c0.3,0.6,0.5,1.3,0.5,2V36
				c0,0.8-0.2,1.4-0.5,2c-0.3,0.6-0.8,1.1-1.3,1.4c-0.6,0.3-1.2,0.5-1.9,0.5H66z M68,33.2v5.1h0.7c0.6,0,1-0.2,1.3-0.6
				c0.3-0.4,0.5-1,0.5-1.8v-0.4c0-0.8-0.2-1.4-0.5-1.8c-0.3-0.4-0.7-0.6-1.3-0.6H68z"/>
			<path fill="#821E6E" d="M78.4,36.4h-3.1v2H79v1.5h-5.6v-8.2H79v1.5h-3.7v1.7h3.1V36.4z"/>
			<path fill="#821E6E" d="M86.8,38.3h-2.7l-0.5,1.5h-2.1l3-8.2h1.9l3,8.2h-2.1L86.8,38.3z M84.6,36.8h1.8L85.5,34L84.6,36.8z"/>
			<path fill="#821E6E" d="M93,37h-1.1v2.9h-2v-8.2h3.2c1,0,1.7,0.2,2.3,0.6c0.5,0.4,0.8,1,0.8,1.8c0,0.6-0.1,1-0.3,1.4
				c-0.2,0.4-0.6,0.7-1.1,0.9l1.7,3.3v0.1h-2.1L93,37z M91.9,35.5h1.2c0.4,0,0.7-0.1,0.8-0.3c0.2-0.2,0.3-0.5,0.3-0.8
				s-0.1-0.6-0.3-0.8c-0.2-0.2-0.5-0.3-0.8-0.3h-1.2V35.5z"/>
			<path fill="#821E6E" d="M103.6,33.2h-2.5v6.7h-2v-6.7h-2.4v-1.5h6.8V33.2z"/>
			<path fill="#821E6E" d="M109.3,36.4h-3.1v2h3.7v1.5h-5.6v-8.2h5.7v1.5h-3.7v1.7h3.1V36.4z"/>
			<path fill="#821E6E" d="M114.7,37.7c0-0.3-0.1-0.5-0.3-0.7c-0.2-0.2-0.6-0.3-1.1-0.5c-0.5-0.2-0.9-0.3-1.3-0.5
				c-1.1-0.5-1.6-1.2-1.6-2.1c0-0.5,0.1-0.9,0.4-1.2c0.3-0.3,0.6-0.6,1.1-0.8c0.5-0.2,1-0.3,1.6-0.3c0.6,0,1.1,0.1,1.6,0.3
				c0.5,0.2,0.8,0.5,1.1,0.9c0.3,0.4,0.4,0.8,0.4,1.3h-2c0-0.3-0.1-0.6-0.3-0.8c-0.2-0.2-0.5-0.3-0.8-0.3c-0.4,0-0.6,0.1-0.8,0.2
				c-0.2,0.2-0.3,0.4-0.3,0.6c0,0.2,0.1,0.4,0.3,0.6c0.2,0.2,0.6,0.3,1.2,0.5c0.6,0.2,1,0.4,1.4,0.6c0.9,0.5,1.3,1.2,1.3,2.1
				c0,0.7-0.3,1.3-0.8,1.7c-0.5,0.4-1.3,0.6-2.2,0.6c-0.7,0-1.3-0.1-1.8-0.4c-0.5-0.2-0.9-0.6-1.2-1c-0.3-0.4-0.4-0.9-0.4-1.4h2
				c0,0.4,0.1,0.8,0.3,1c0.2,0.2,0.6,0.3,1.1,0.3c0.3,0,0.6-0.1,0.8-0.2C114.6,38.2,114.7,38,114.7,37.7z"/>
		</g>
	</g>
</g>
</svg>
